# xmcd
#
# Track frame offsets:
#	150
#	10406
#	20884
#	38196
#	53890
#	64864
#	77601
#	88818
#	102362
#	117849
#	137278
#	149017
#	166357
#	177553
#
# Disc length: 2525 seconds
# Revision: 0
# Processed by: cddbd v1.5.2PL0 Copyright (c) Steve Scherf et al.
# Submitted via: dBpowerAMP V12.0
#
DISCID=c409db0e
DTITLE=Various Artist - Bill Monroe Centennial Celebration: A Classic Bluegrass Tribute, Disc 1/2
DYEAR=2011
DGENRE=Country
TTITLE0=The Bluegrass Album Band - Tall Timber
TTITLE1=The Grascals - Will You Be Loving Another Man
TTITLE2=Michael Cleveland with Dan Tyminski and Vince Gill - Dark as the Night, Blue as the Day
TTITLE3=The Bluegrass Album Band - Cheyenne
TTITLE4=Dailey and Vincent - Close By
TTITLE5=Joe Val and The New England Bluegrass Boys - I Hear a Sweet Voice Calling
TTITLE6=Wyatt Rice - Shenandoah Breakdown
TTITLE7=Claire Lynch - My Florida Sunshine
TTITLE8=Nashville Bluegrass Band - I'm Blue I'm Lonesome
TTITLE9=Ricky Skaggs - Toy Heart
TTITLE10=The Bluegrass Album Band - Wheel Hoss
TTITLE11=The Bluegrass Album Band - On the Old Kentucky Shore
TTITLE12=Al Jones, Frank Necessary and The Spruce Mountain Boys - Come Back to Me in My Dreams
TTITLE13=Blue Highway - Wicked Path of Sin
EXTD=
EXTT0=
EXTT1=
EXTT2=
EXTT3=
EXTT4=
EXTT5=
EXTT6=
EXTT7=
EXTT8=
EXTT9=
EXTT10=
EXTT11=
EXTT12=
EXTT13=
PLAYORDER=
